<svg width="40" height="40" viewBox="0 0 40 40" fill="none" xmlns="http://www.w3.org/2000/svg">
<rect width="40" height="40" rx="20" fill="#EAF0FA"/>
<path d="M15.0742 19.8389L19.8184 25H17.8154L13.5635 20.3721H13.5088V25H11.9775V15.1357H13.5088V19.5518H13.5635L17.583 15.1357H19.415L15.0742 19.8389ZM22.0466 25.0752C21.7367 25.0752 21.518 25.0456 21.3904 24.9863V23.667C21.5544 23.708 21.7435 23.7285 21.9577 23.7285C22.3041 23.7285 22.598 23.6556 22.8396 23.5098C23.0857 23.3639 23.3021 23.1292 23.489 22.8057L20.153 15.1357H21.78L24.2478 21.1992H24.3503L26.7429 15.1357H28.3425L25.321 22.1768C24.8607 23.2523 24.3913 24.0042 23.9128 24.4326C23.4389 24.861 22.8168 25.0752 22.0466 25.0752Z" fill="#002CFB"/>
</svg>
